<svg width="135" height="26" viewBox="0 0 135 26" fill="none" xmlns="http://www.w3.org/2000/svg">
<path d="M0.948153 18V7.09091H8.17116V8.99254H3.25462V11.592H7.69176V13.4936H3.25462V18H0.948153ZM10.2406 18H7.769L11.535 7.09091H14.5073L18.2679 18H15.7963L13.0637 9.58381H12.9785L10.2406 18ZM10.0861 13.712H15.9242V15.5124H10.0861V13.712ZM19.581 18V7.09091H23.9489C24.7514 7.09091 25.4208 7.20987 25.957 7.4478C26.4933 7.68572 26.8963 8.01598 27.1662 8.43857C27.4361 8.8576 27.571 9.34055 27.571 9.88743C27.571 10.3136 27.4858 10.6882 27.3153 11.0114C27.1449 11.331 26.9105 11.5937 26.6122 11.7997C26.3175 12.0021 25.9801 12.146 25.6001 12.2312V12.3377C26.0156 12.3555 26.4045 12.4727 26.7667 12.6893C27.1325 12.9059 27.429 13.2095 27.6562 13.6001C27.8835 13.9872 27.9972 14.4489 27.9972 14.9851C27.9972 15.5639 27.8533 16.0806 27.5657 16.5352C27.2816 16.9862 26.8608 17.343 26.3033 17.6058C25.7457 17.8686 25.0586 18 24.2418 18H19.581ZM21.8874 16.1143H23.7678C24.4105 16.1143 24.8793 15.9918 25.174 15.7468C25.4688 15.4982 25.6161 15.168 25.6161 14.756C25.6161 14.4542 25.5433 14.1879 25.3977 13.957C25.2521 13.7262 25.0444 13.5451 24.7745 13.4137C24.5082 13.2823 24.1903 13.2166 23.821 13.2166H21.8874V16.1143ZM21.8874 11.6559H23.5973C23.9134 11.6559 24.1939 11.6009 24.4389 11.4908C24.6875 11.3771 24.8828 11.2173 25.0249 11.0114C25.1705 10.8054 25.2433 10.5586 25.2433 10.271C25.2433 9.87678 25.103 9.55895 24.8224 9.31747C24.5455 9.07599 24.1513 8.95526 23.6399 8.95526H21.8874V11.6559ZM29.498 18V7.09091H31.8044V16.0984H36.4813V18H29.498ZM38.0087 18V7.09091H45.3596V8.99254H40.3152V11.592H44.9814V13.4936H40.3152V16.0984H45.3809V18H38.0087ZM50.665 18V7.09091H57.888V8.99254H52.9714V11.592H57.4086V13.4936H52.9714V18H50.665ZM59.4394 18V7.09091H63.7433C64.5672 7.09091 65.2703 7.23828 65.8527 7.53303C66.4387 7.82422 66.8843 8.23793 67.1897 8.77415C67.4987 9.30682 67.6531 9.93359 67.6531 10.6545C67.6531 11.3789 67.4969 12.0021 67.1844 12.5241C66.8719 13.0426 66.4191 13.4403 65.8261 13.7173C65.2366 13.9943 64.5228 14.1328 63.6847 14.1328H60.803V12.2791H63.3119C63.7522 12.2791 64.118 12.2187 64.4092 12.098C64.7004 11.9773 64.917 11.7962 65.059 11.5547C65.2046 11.3132 65.2774 11.0131 65.2774 10.6545C65.2774 10.2923 65.2046 9.98686 65.059 9.73828C64.917 9.4897 64.6986 9.30149 64.4039 9.17365C64.1127 9.04226 63.7451 8.97656 63.3012 8.97656H61.7458V18H59.4394ZM65.3307 13.0355L68.042 18H65.4958L62.8431 13.0355H65.3307ZM71.5896 7.09091V18H69.2831V7.09091H71.5896ZM77.3544 18H73.4872V7.09091H77.3864C78.4837 7.09091 79.4283 7.3093 80.2202 7.74609C81.0121 8.17933 81.6211 8.80256 82.0472 9.61577C82.4769 10.429 82.6918 11.402 82.6918 12.5348C82.6918 13.6712 82.4769 14.6477 82.0472 15.4645C81.6211 16.2812 81.0085 16.908 80.2095 17.3448C79.4141 17.7816 78.4624 18 77.3544 18ZM75.7937 16.0238H77.2585C77.9403 16.0238 78.5138 15.9031 78.979 15.6616C79.4478 15.4165 79.7994 15.0384 80.0337 14.527C80.2717 14.0121 80.3906 13.348 80.3906 12.5348C80.3906 11.7287 80.2717 11.07 80.0337 10.5586C79.7994 10.0472 79.4496 9.67081 78.9844 9.42933C78.5192 9.18786 77.9457 9.06712 77.2638 9.06712H75.7937V16.0238ZM91.634 10.6172C91.5594 10.358 91.4546 10.1289 91.3197 9.93004C91.1847 9.72763 91.0196 9.55717 90.8243 9.41868C90.6325 9.27663 90.4124 9.16832 90.1638 9.09375C89.9188 9.01918 89.6471 8.98189 89.3488 8.98189C88.7913 8.98189 88.3012 9.12038 87.8786 9.39737C87.4596 9.67436 87.1329 10.0774 86.8985 10.6065C86.6642 11.1321 86.547 11.7749 86.547 12.5348C86.547 13.2947 86.6624 13.9411 86.8932 14.4737C87.124 15.0064 87.4507 15.413 87.8733 15.6935C88.2959 15.9705 88.7948 16.109 89.3701 16.109C89.8921 16.109 90.3378 16.0167 90.7071 15.832C91.08 15.6438 91.3641 15.3793 91.5594 15.0384C91.7583 14.6974 91.8577 14.2944 91.8577 13.8292L92.3264 13.8984H89.5139V12.1619H94.0789V13.5362C94.0789 14.495 93.8765 15.3189 93.4717 16.0078C93.0669 16.6932 92.5093 17.2223 91.7991 17.5952C91.0889 17.9645 90.2757 18.1491 89.3595 18.1491C88.3367 18.1491 87.4383 17.9237 86.6642 17.4727C85.89 17.0181 85.2863 16.3736 84.8531 15.5391C84.4234 14.701 84.2085 13.7067 84.2085 12.5561C84.2085 11.6719 84.3364 10.8835 84.5921 10.1911C84.8513 9.49503 85.2135 8.90554 85.6787 8.42259C86.1439 7.93963 86.6855 7.57209 87.3034 7.31996C87.9213 7.06783 88.5906 6.94176 89.3115 6.94176C89.9294 6.94176 90.5047 7.03232 91.0374 7.21342C91.57 7.39098 92.0423 7.64311 92.4543 7.96982C92.8698 8.29652 93.2089 8.68537 93.4717 9.13636C93.7345 9.58381 93.9031 10.0774 93.9777 10.6172H91.634ZM95.8114 18V7.09091H103.162V8.99254H98.1179V11.592H102.784V13.4936H98.1179V16.0984H103.184V18H95.8114Z" fill="#2C2C2C"/>
<path d="M135 2.45283C135 1.09817 133.853 0 132.439 0H114.512C114.229 0 114 0.219634 114 0.490566V25.5094C114 25.7804 114.229 26 114.512 26H132.439C133.853 26 135 24.9018 135 23.5472V2.45283Z" fill="#2C2C2C"/>
<path d="M127 6.5C127 6.22386 126.552 6 126 6C125.448 6 125 6.22386 125 6.5V19.5C125 19.7761 125.448 20 126 20C126.552 20 127 19.7761 127 19.5V6.5Z" fill="#CFF4F6"/>
<path d="M124 6.5C124 6.22386 123.552 6 123 6C122.448 6 122 6.22386 122 6.5V19.5C122 19.7761 122.448 20 123 20C123.552 20 124 19.7761 124 19.5V6.5Z" fill="#CFF4F6"/>
<path d="M113 0.245284C113 0.109818 112.776 0 112.5 0C112.224 0 112 0.109817 112 0.245283V25.7547C112 25.8902 112.224 26 112.5 26C112.776 26 113 25.8902 113 25.7547V0.245284Z" fill="#2C2C2C"/>
<path d="M111 0.245284C111 0.109818 110.776 0 110.5 0C110.224 0 110 0.109817 110 0.245283V25.7547C110 25.8902 110.224 26 110.5 26C110.776 26 111 25.8902 111 25.7547V0.245284Z" fill="#2C2C2C"/>
</svg>
